<?xml version="1.0" encoding="iso-8859-1"?>
<!-- Generator: Adobe Illustrator 19.0.0, SVG Export Plug-In . SVG Version: 6.00 Build 0)  -->
<svg version="1.1" id="Capa_1" xmlns="http://www.w3.org/2000/svg" xmlns:xlink="http://www.w3.org/1999/xlink" x="0px" y="0px"
	 viewBox="0 0 512 512" style="enable-background:new 0 0 512 512;" xml:space="preserve">
<path style="fill:#C1C1C1;" d="M410.664,34.134h50.134c18.85,0,34.132,15.282,34.132,34.132v409.602
	c0,18.85-15.282,34.132-34.132,34.132H51.197c-18.85,0-34.132-15.282-34.132-34.132V68.266c0-18.85,15.282-34.132,34.132-34.132
	h50.133H410.664z"/>
<path style="fill:#A8A8A8;" d="M460.798,34.134h-25.599c18.85,0,34.132,15.282,34.132,34.132v409.602
	c0,18.85-15.282,34.132-34.132,34.132h25.599c18.85,0,34.132-15.282,34.132-34.132V68.266
	C494.93,49.416,479.648,34.134,460.798,34.134z"/>
<path style="fill:#EEEEEF;" d="M494.93,443.732c0,18.85-15.282,34.132-34.132,34.132H51.197c-18.85,0-34.132-15.282-34.132-34.132
	V153.601h477.866L494.93,443.732z"/>
<path style="fill:#D9D9D9;" d="M469.331,153.601l-0.001,290.131c0,18.85-15.282,34.132-34.132,34.132h25.6
	c18.85,0,34.132-15.282,34.132-34.132l0.001-290.131L469.331,153.601L469.331,153.601z"/>
<g>
	<path style="fill:#C1C1C1;" d="M136.53,332.266H68.263c-4.418,0-8-3.582-8-8v-68.267c0-4.418,3.582-8,8-8h68.267
		c4.418,0,8,3.582,8,8v68.267C144.53,328.684,140.948,332.266,136.53,332.266z M76.263,316.266h52.266v-52.267H76.263V316.266z"/>
	<path style="fill:#C1C1C1;" d="M238.93,332.266h-68.267c-4.418,0-8-3.582-8-8v-68.267c0-4.418,3.582-8,8-8h68.267
		c4.418,0,8,3.582,8,8v68.267C246.93,328.684,243.348,332.266,238.93,332.266z M178.663,316.266h52.267v-52.267h-52.267V316.266z"/>
	<path style="fill:#C1C1C1;" d="M341.33,332.266h-68.267c-4.418,0-8-3.582-8-8v-68.267c0-4.418,3.582-8,8-8h68.267
		c4.418,0,8,3.582,8,8v68.267C349.33,328.684,345.748,332.266,341.33,332.266z M281.063,316.266h52.267v-52.267h-52.267V316.266z"/>
	<path style="fill:#C1C1C1;" d="M443.73,332.266h-68.267c-4.418,0-8-3.582-8-8v-68.267c0-4.418,3.582-8,8-8h68.267
		c4.418,0,8,3.582,8,8v68.267C451.729,328.684,448.147,332.266,443.73,332.266z M383.462,316.266h52.267v-52.267h-52.267V316.266z"
		/>
	<path style="fill:#C1C1C1;" d="M136.53,434.666H68.263c-4.418,0-8-3.582-8-8V358.4c0-4.418,3.582-8,8-8h68.267c4.418,0,8,3.582,8,8
		v68.267C144.53,431.085,140.948,434.666,136.53,434.666z M76.263,418.667h52.266v-52.267H76.263V418.667z"/>
	<path style="fill:#C1C1C1;" d="M238.93,434.666h-68.267c-4.418,0-8-3.582-8-8V358.4c0-4.418,3.582-8,8-8h68.267
		c4.418,0,8,3.582,8,8v68.267C246.93,431.085,243.348,434.666,238.93,434.666z M178.663,418.667h52.267v-52.267h-52.267V418.667z"/>
	<path style="fill:#C1C1C1;" d="M341.33,434.666h-68.267c-4.418,0-8-3.582-8-8V358.4c0-4.418,3.582-8,8-8h68.267
		c4.418,0,8,3.582,8,8v68.267C349.33,431.085,345.748,434.666,341.33,434.666z M281.063,418.667h52.267v-52.267h-52.267V418.667z"/>
	<path style="fill:#C1C1C1;" d="M443.73,434.666h-68.267c-4.418,0-8-3.582-8-8V358.4c0-4.418,3.582-8,8-8h68.267
		c4.418,0,8,3.582,8,8v68.267C451.729,431.085,448.147,434.666,443.73,434.666z M383.462,418.667h52.267v-52.267h-52.267V418.667z"
		/>
	<path style="fill:#C1C1C1;" d="M119.465,229.865H85.329c-4.418,0-8-3.582-8-8c0-4.418,3.582-8,8-8h34.135c4.418,0,8,3.582,8,8
		C127.464,226.283,123.882,229.865,119.465,229.865z"/>
	<path style="fill:#C1C1C1;" d="M221.864,229.865h-34.135c-4.418,0-8-3.582-8-8c0-4.418,3.582-8,8-8h34.135c4.418,0,8,3.582,8,8
		C229.864,226.283,226.282,229.865,221.864,229.865z"/>
	<path style="fill:#C1C1C1;" d="M324.264,229.865h-34.135c-4.418,0-8-3.582-8-8c0-4.418,3.582-8,8-8h34.135c4.418,0,8,3.582,8,8
		C332.264,226.283,328.682,229.865,324.264,229.865z"/>
	<path style="fill:#C1C1C1;" d="M426.664,229.865h-34.136c-4.418,0-8-3.582-8-8c0-4.418,3.582-8,8-8h34.135c4.418,0,8,3.582,8,8
		C434.663,226.283,431.082,229.865,426.664,229.865z"/>
</g>
<path style="fill:#F35657;" d="M494.93,170.667V68.266c0-18.85-15.282-34.132-34.132-34.132h-50.133H101.33H51.197
	c-18.85,0-34.132,15.282-34.132,34.132v102.401L494.93,170.667L494.93,170.667z"/>
<path style="fill:#CC4142;" d="M460.798,34.134h-25.599c18.85,0,34.132,15.282,34.132,34.132v102.401h25.599V68.266
	C494.93,49.416,479.648,34.134,460.798,34.134z"/>
<g>
	<rect x="17.065" y="128.536" style="fill:#2E4F5A;" width="477.87" height="16"/>
	<path style="fill:#2E4F5A;" d="M102.397,76.266h-8.534c-4.418,0-8-3.582-8-8s3.582-8,8-8h8.534c4.418,0,8,3.582,8,8
		C110.397,72.684,106.815,76.266,102.397,76.266z"/>
	<path style="fill:#2E4F5A;" d="M145.063,76.266h-8.534c-4.418,0-8-3.582-8-8s3.582-8,8-8h8.534c4.418,0,8,3.582,8,8
		C153.063,72.684,149.481,76.266,145.063,76.266z"/>
	<path style="fill:#2E4F5A;" d="M375.464,76.266h-8.533c-4.418,0-8-3.582-8-8s3.582-8,8-8h8.533c4.418,0,8,3.582,8,8
		C383.463,72.684,379.882,76.266,375.464,76.266z"/>
	<path style="fill:#2E4F5A;" d="M418.13,76.266h-8.534c-4.418,0-8-3.582-8-8s3.582-8,8-8h8.534c4.418,0,8,3.582,8,8
		C426.13,72.684,422.548,76.266,418.13,76.266z"/>
</g>
<path style="fill:#C1C1C1;" d="M375.464,68.267c0,9.426,7.641,17.067,17.067,17.067c9.426,0,17.067-7.641,17.067-17.067v-51.2
	C409.598,7.641,401.957,0,392.531,0c-9.426,0-17.067,7.641-17.067,17.067V68.267z"/>
<path style="fill:#A8A8A8;" d="M392.53,61.333c-9.426,0-17.067-7.641-17.067-17.067v24c0,9.426,7.641,17.067,17.067,17.067
	c9.426,0,17.067-7.641,17.067-17.067V44.267C409.597,53.692,401.956,61.333,392.53,61.333z"/>
<path style="fill:#C1C1C1;" d="M102.397,68.267c0,9.426,7.641,17.067,17.067,17.067s17.067-7.641,17.067-17.067v-51.2
	C136.531,7.641,128.89,0,119.464,0s-17.067,7.641-17.067,17.067V68.267z"/>
<path style="fill:#A8A8A8;" d="M119.463,61.333c-9.426,0-17.067-7.641-17.067-17.067v24c0,9.426,7.641,17.067,17.067,17.067
	s17.067-7.641,17.067-17.067V44.267C136.529,53.692,128.888,61.333,119.463,61.333z"/>
<g>
</g>
<g>
</g>
<g>
</g>
<g>
</g>
<g>
</g>
<g>
</g>
<g>
</g>
<g>
</g>
<g>
</g>
<g>
</g>
<g>
</g>
<g>
</g>
<g>
</g>
<g>
</g>
<g>
</g>
</svg>
