<svg viewBox="0 0 512.00073 512" xmlns="http://www.w3.org/2000/svg"><path d="m431.992188 77.363281s-10.378907-29.277343-13.089844-73.621093c-.128906-2.105469-1.882813-3.742188-3.992188-3.742188h-135.527344c-2.085937 0-3.820312 1.597656-3.988281 3.675781-1.683593 21.167969-11.570312 128.339844-42.726562 180.261719-34.660157 57.773438-112.328125 202.6875-112.328125 202.6875v7.976562c0 14.699219 11.917968 26.613282 26.613281 26.613282h94.085937c14.421876 0 27.742188-7.722656 34.90625-20.242188l158.917969-277.75c6.671875-11.660156 7.082031-25.878906 1.089844-37.902344zm0 0" fill="#ebad88"/><path d="m435.953125 85.320312-3.960937-7.957031s-10.378907-29.273437-13.089844-73.621093c-.128906-2.105469-1.882813-3.742188-3.992188-3.742188h-27.636718c2.332031 46.433594 13.296874 77.363281 13.296874 77.363281l3.964844 7.957031c5.988282 12.023438 5.578125 26.242188-1.089844 37.902344l-158.921874 277.75c-7.160157 12.519532-20.480469 20.242188-34.90625 20.242188h31.421874c14.421876 0 27.742188-7.722656 34.90625-20.242188l158.917969-277.746094c6.671875-11.660156 7.082031-25.882812 1.089844-37.90625zm0 0" fill="#e8916f"/><path d="m511.992188 213.484375s-33.785157 238.773437-36.421876 294.601563c-.105468 2.195312-1.917968 3.914062-4.117187 3.914062h-14.996094c-2.097656 0-3.859375-1.570312-4.09375-3.652344-3.238281-28.660156-26.171875-217.402344-73.273437-262.429687 0 0 59.238281-86.25 132.902344-32.433594zm0 0" fill="#685c79"/><path d="m480.140625 198.019531c1.09375 9.542969.941406 15.464844.941406 15.464844s-24.4375 172.765625-33.363281 258.738281c2.433594 17.175782 3.96875 30.140625 4.644531 36.121094.234375 2.085938 1.996094 3.65625 4.09375 3.65625h14.996094c2.199219 0 4.011719-1.71875 4.117187-3.914062 2.636719-55.828126 36.421876-294.601563 36.421876-294.601563-10.988282-8.027344-21.652344-12.917969-31.851563-15.464844zm0 0" fill="#594f69"/><path d="m431.992188 77.363281s-77 63.75-184.976563 285.253907c-21.210937 43.507812-75.941406 58.632812-116.300781 31.917968-6.636719-4.390625-10.375-7.910156-10.375-7.910156l-106.9375 47.722656c-14.667969 7.683594-17.949219 27.242188-6.589844 39.285156 23.089844 24.488282 55.253906 38.367188 88.90625 38.367188h117.65625c30.710938 0 58.933594-16.828125 73.582031-43.820312 41.421875-76.320313 133.6875-228.089844 225.035157-254.695313 0 0 2.386718-93.136719-80-136.121094zm0 0" fill="#ff2c5c"/><path d="m256.050781 468.1875c-14.648437 26.988281-42.863281 43.8125-73.574219 43.8125h30.898438c30.710938 0 58.933594-16.828125 73.582031-43.820312 21.335938-39.308594 56.160157-98.636719 97.398438-150.5625-48 33.160156-103.3125 104.519531-128.304688 150.570312zm0 0" fill="#e62753"/><path d="m431.992188 77.363281s-4.226563 3.496094-12.074219 11.691407c63.164062 46.144531 61.167969 124.429687 61.167969 124.429687s-.765626 5.394531-2.066407 14.738281c10.941407-6.492187 21.964844-11.53125 32.972657-14.738281 0 0 2.386718-93.136719-80-136.121094zm0 0" fill="#e62753"/><path d="m80.503906 178.882812 10.320313 20.96875c1.113281 2.261719 3.261719 3.828126 5.75 4.1875l23.078125 3.363282c6.261718.914062 8.761718 8.628906 4.230468 13.058594l-16.699218 16.324218c-1.800782 1.757813-2.621094 4.292969-2.199219 6.773438l3.941406 23.046875c1.070313 6.257812-5.476562 11.023437-11.074219 8.070312l-20.644531-10.878906c-2.222656-1.171875-4.878906-1.171875-7.105469 0l-20.640624 10.878906c-5.601563 2.953125-12.148438-1.8125-11.078126-8.070312l3.941407-23.046875c.425781-2.480469-.394531-5.015625-2.195313-6.773438l-16.699218-16.324218c-4.53125-4.429688-2.03125-12.144532 4.230468-13.058594l23.078125-3.363282c2.488281-.359374 4.636719-1.925781 5.746094-4.1875l10.324219-20.96875c2.804687-5.6875 10.894531-5.6875 13.695312 0zm0 0" fill="#ffd659"/><path d="m123.882812 220.460938c4.53125-4.429688 2.03125-12.144532-4.230468-13.058594l-23.078125-3.363282c-2.488281-.359374-4.636719-1.925781-5.75-4.1875l-10.320313-20.96875c-2.800781-5.6875-10.890625-5.6875-13.691406 0l-.542969 1.105469c5.5 39.957031 27.132813 48.882813 25.796875 91.636719l5.785156 3.050781c5.601563 2.953125 12.148438-1.8125 11.078126-8.070312l-3.941407-23.046875c-.425781-2.480469.394531-5.015625 2.195313-6.773438zm0 0" fill="#ffbd54"/><path d="m189.617188 60.050781 7.082031 14.121094c.761719 1.523437 2.238281 2.574219 3.945312 2.820313l15.835938 2.265624c4.300781.613282 6.015625 5.808594 2.90625 8.792969l-11.460938 10.992188c-1.234375 1.183593-1.800781 2.890625-1.507812 4.5625l2.703125 15.523437c.734375 4.210938-3.757813 7.421875-7.601563 5.433594l-14.164062-7.328125c-1.527344-.789063-3.351563-.789063-4.875 0l-14.167969 7.328125c-3.84375 1.988281-8.335938-1.222656-7.601562-5.433594l2.703124-15.523437c.292969-1.671875-.269531-3.378907-1.503906-4.5625l-11.460937-10.992188c-3.109375-2.984375-1.394531-8.179687 2.902343-8.792969l15.839844-2.265624c1.707032-.246094 3.179688-1.300782 3.945313-2.820313l7.082031-14.121094c1.921875-3.832031 7.476562-3.832031 9.398438 0zm0 0" fill="#ffd659"/><path d="m207.921875 99.042969c-1.226563 1.183593-1.792969 2.894531-1.503906 4.5625l2.707031 15.527343c.730469 4.210938-3.757812 7.414063-7.601562 5.425782l-4.101563-2.121094c-2.707031-23.519531-13.472656-35.601562-20.417969-55.980469l3.214844-6.40625c1.914062-3.832031 7.480469-3.832031 9.394531 0l7.089844 14.125c.761719 1.523438 2.234375 2.574219 3.945313 2.820313l15.832031 2.257812c4.296875.617188 6.015625 5.820313 2.90625 8.796875zm0 0" fill="#ffbd54"/><path d="m341.722656 356.144531 8.097656 16.265625c.871094 1.75 2.554688 2.964844 4.507813 3.246094l18.101563 2.609375c4.910156.707031 6.871093 6.691406 3.316406 10.125l-13.097656 12.660156c-1.410157 1.363281-2.054688 3.328125-1.722657 5.253907l3.09375 17.875c.839844 4.847656-4.292969 8.546874-8.6875 6.257812l-16.191406-8.4375c-1.742187-.910156-3.828125-.910156-5.570313 0l-16.191406 8.4375c-4.394531 2.289062-9.527344-1.410156-8.6875-6.257812l3.089844-17.875c.335938-1.925782-.308594-3.890626-1.71875-5.253907l-13.101562-12.660156c-3.550782-3.433594-1.589844-9.417969 3.320312-10.125l18.101562-2.609375c1.949219-.28125 3.636719-1.496094 4.507813-3.246094l8.097656-16.265625c2.191407-4.410156 8.539063-4.410156 10.734375 0zm0 0" fill="#ffd659"/><path d="m362.644531 401.050781c-1.410156 1.359375-2.050781 3.324219-1.722656 5.253907l3.09375 17.871093c.84375 4.855469-4.296875 8.550781-8.683594 6.265625l-2.339843-1.226562c-1.140626-31.636719-15.96875-43.453125-23.160157-70.753906l1.15625-2.316407c2.195313-4.410156 8.539063-4.410156 10.734375 0l8.097656 16.265625c.875 1.75 2.554688 2.96875 4.511719 3.246094l18.097657 2.605469c4.90625.710937 6.871093 6.695312 3.316406 10.125zm0 0" fill="#ffbd54"/></svg>