<?xml version="1.0" encoding="iso-8859-1"?>
<!-- Generator: Adobe Illustrator 19.0.0, SVG Export Plug-In . SVG Version: 6.00 Build 0)  -->
<svg version="1.1" id="Capa_1" xmlns="http://www.w3.org/2000/svg" xmlns:xlink="http://www.w3.org/1999/xlink" x="0px" y="0px"
	 viewBox="0 0 512 512" style="enable-background:new 0 0 512 512;" xml:space="preserve">
<g>
	<path style="fill:#FAD7A5;" d="M152.712,339.647h-9.382c-10.505,0-19.021-8.516-19.021-19.021v-31.338
		c0-10.505,8.516-19.021,19.021-19.021h8.519L152.712,339.647z"/>
	<path style="fill:#FAD7A5;" d="M363.874,339.647h9.814c10.505,0,19.021-8.516,19.021-19.021v-31.338
		c0-10.505-8.516-19.021-19.021-19.021h-9.814V339.647z"/>
	<path style="fill:#FAD7A5;" d="M456.455,512L456.455,512c0-13.726-11.127-24.853-24.853-24.853H326.275
		c-13.726,0-24.853-11.127-24.853-24.853v-16.051h-90.844v16.051c0,13.726-11.127,24.853-24.853,24.853H80.398
		c-13.726,0-24.853,11.127-24.853,24.853l0,0H456.455z"/>
</g>
<path style="fill:#F0C891;" d="M210.578,446.244v16.051c0,1.783-0.192,3.521-0.549,5.197c14.545,7.435,31.022,11.63,48.479,11.63
	l0,0c15.696,0,30.599-3.392,44.019-9.48c-0.718-2.322-1.105-4.789-1.105-7.347v-16.051H210.578z"/>
<path style="fill:#FAD7A5;" d="M258.509,458.733L258.509,458.733c-58.907,0-106.66-47.753-106.66-106.659V203.338h213.319v148.735
	C365.168,410.98,317.415,458.733,258.509,458.733z"/>
<path style="fill:#AAE1FF;" d="M258.509,446.244L258.509,446.244c-53.146,0-96.228-43.083-96.228-96.228V215.827h192.456v134.189
	C354.737,403.161,311.654,446.244,258.509,446.244z"/>
<path style="fill:#E84949;" d="M350.641,172.319v-73.44c0-15.41-7.717-29.797-20.554-38.321l-70.323-46.694l-39.593,82.262
	L350.641,172.319z"/>
<path style="fill:#D34444;" d="M330.086,60.557l-70.323-46.694l-7.524,15.632l46.781,31.062
	c12.838,8.524,20.555,22.911,20.555,38.321v55.298l31.066,18.143v-73.44C350.641,83.468,342.924,69.082,330.086,60.557z"/>
<path style="fill:#F4635B;" d="M392.709,300.575V195.499c0-15.41-7.717-29.797-20.555-38.321L220.171,56.26v143.552L392.709,300.575
	z"/>
<path style="fill:#E84949;" d="M372.154,157.178L220.171,56.26v20.628l120.918,80.29c12.838,8.524,20.555,22.911,20.555,38.321
	v86.933l31.066,18.143V195.499C392.709,180.089,384.992,165.702,372.154,157.178z"/>
<path style="fill:#FF4D4D;" d="M166.377,172.319v-73.44c0-15.41,7.717-29.797,20.554-38.321l87.543-58.129
	c9.574-6.357,22.372,0.507,22.372,12v81.696L166.377,172.319z"/>
<path style="fill:#FF6B5C;" d="M124.309,300.575V195.499c0-15.41,7.717-29.797,20.554-38.321l121.346-80.574
	c13.111-8.706,30.638,0.695,30.638,16.433v106.775L124.309,300.575z"/>
<g>
	<circle style="fill:#FAD7A5;" cx="216.09" cy="317.38" r="31.584"/>
	<circle style="fill:#FAD7A5;" cx="303.31" cy="317.38" r="31.584"/>
</g>
<g>
	<path style="fill:#53515E;" d="M227.788,326.703h-23.126c-4.29,0-7.766-3.477-7.766-7.766s3.477-7.766,7.766-7.766h23.126
		c4.29,0,7.766,3.477,7.766,7.766S232.078,326.703,227.788,326.703z"/>
	<path style="fill:#53515E;" d="M318.003,326.703h-23.126c-4.29,0-7.766-3.477-7.766-7.766s3.477-7.766,7.766-7.766h23.126
		c4.29,0,7.766,3.477,7.766,7.766C325.77,323.226,322.293,326.703,318.003,326.703z"/>
</g>
<path style="fill:#F4635B;" d="M258.509,419.038L258.509,419.038c-18.526,0-33.544-15.018-33.544-33.544v-3.735h67.088v3.735
	C292.053,404.019,277.035,419.038,258.509,419.038z"/>
<g>
</g>
<g>
</g>
<g>
</g>
<g>
</g>
<g>
</g>
<g>
</g>
<g>
</g>
<g>
</g>
<g>
</g>
<g>
</g>
<g>
</g>
<g>
</g>
<g>
</g>
<g>
</g>
<g>
</g>
</svg>
